<svg xmlns="http://www.w3.org/2000/svg" viewBox="0 0 800 590">
<defs><pattern id="wood" width="114" height="49" patternUnits="userSpaceOnUse"><rect width="114" height="49" fill="#e5d6b9"/><path d="M0 48.5H114M57 0V49" fill="none" stroke="#cbbb9c" stroke-opacity=".38"/><path d="M6 12H42M67 31H101M14 38H46" stroke="#f7ecd4" stroke-width="2" stroke-opacity=".45"/></pattern><linearGradient id="wall" x2="0" y2="1"><stop stop-color="#e9ebd8"/><stop offset="1" stop-color="#dce1c8"/></linearGradient><linearGradient id="glass" x2="0" y2="1"><stop stop-color="#bad1c1"/><stop offset="1" stop-color="#e9efd8"/></linearGradient><linearGradient id="sun" x2="0" y2="1"><stop stop-color="#fff7ca" stop-opacity=".6"/><stop offset="1" stop-color="#fff9d8" stop-opacity=".02"/></linearGradient><filter id="shadow" x="-.5" y="-.5" width="2" height="2"><feDropShadow dx="0" dy="8" stdDeviation="7" flood-color="#867951" flood-opacity=".15"/></filter><pattern id="rug" width="12" height="12" patternUnits="userSpaceOnUse"><rect width="12" height="12" fill="#a8b494"/><path d="M0 3H12M3 0V12" stroke="#bec7a8" stroke-width=".8"/></pattern></defs>
<ellipse cx="402" cy="505" rx="305" ry="29" fill="#93a17e" opacity=".08"/>
<g filter="url(#shadow)"><path d="M81 164H719V493Q719 507 705 507H95Q81 507 81 493Z" fill="url(#wood)"/><path d="M81 164V110Q81 96 95 96H705Q719 96 719 110V177H81" fill="url(#wall)"/><path d="M81 164H719V180H81Z" fill="#c4c9ac"/><path d="M75 120H87V499H75Z" fill="#d8dec5"/><path d="M713 120H725V499H713Z" fill="#d8dec5"/><path d="M82 498H718V514H82Z" fill="#c9b794"/><path d="M91 509H709" stroke="#f3e8d0" stroke-width="3"/>
<path d="M298 154L447 154L552 482L331 482Z" fill="url(#sun)"/>
<!-- garden window -->
<rect x="295" y="53" width="162" height="122" rx="8" fill="#c4c9ad"/><rect x="303" y="60" width="146" height="104" rx="3" fill="#f8f5e5"/><rect x="310" y="66" width="132" height="91" rx="2" fill="url(#glass)"/><path d="M314 138Q337 102 359 135Q389 106 414 137Q432 120 440 135V157H310Z" fill="#a7bd9e"/><path d="M315 124Q326 114 332 122M403 95Q410 90 417 95" fill="none" stroke="#ebf2dc" stroke-width="3"/><path d="M376 64V159M309 114H441" stroke="#fcf7e6" stroke-width="6"/><rect x="292" y="164" width="167" height="12" rx="3" fill="#ece5cf"/>
<path d="M285 57Q307 46 325 59L320 162Q303 151 285 167Z" fill="#ede4c8"/><path d="M288 65L301 155M303 63L311 154M452 57L459 163M467 56L476 160" stroke="#d8cfb1" fill="none" stroke-width="2"/><path d="M444 57Q463 46 482 59L482 167Q463 151 446 162Z" fill="#e9dfc3"/><path d="M454 63L459 157M469 63L476 160" stroke="#d6cdb0" fill="none" stroke-width="2"/>
<!-- bed -->
<g filter="url(#shadow)"><rect x="120" y="193" width="160" height="205" rx="13" fill="#bca982"/><rect x="124" y="185" width="152" height="201" rx="12" fill="#f3eddb"/><rect x="125" y="180" width="150" height="24" rx="8" fill="#b5a27e"/><rect x="139" y="204" width="122" height="46" rx="12" fill="#fffbee" stroke="#e5dec8" stroke-width="2"/><path d="M146 213Q174 220 184 211M221 237L250 236" stroke="#e5e2ce" fill="none"/><rect x="127" y="263" width="147" height="119" rx="10" fill="#9dac8c"/><path d="M129 273H272M145 279V370M179 279V377M217 279V374M253 279V371" stroke="#acb99b" stroke-width="2"/><path d="M131 265Q196 254 269 265V282Q192 275 131 284Z" fill="#b8c1a5"/><path d="M199 307Q182 290 177 307Q173 321 199 333Q225 321 221 307Q215 292 199 307" fill="#c6ccb5" opacity=".75"/></g>
<!-- bedside stool -->
<rect x="98" y="225" width="28" height="42" rx="5" fill="#c8b896"/><ellipse cx="109" cy="226" rx="18" ry="9" fill="#e6d9b8"/><path d="M109 215V198" stroke="#b49a6e" stroke-width="4"/><path d="M95 201L99 179H119L124 201Z" fill="#eee0b1"/><ellipse cx="109" cy="201" rx="15" ry="4" fill="#e1ce9d"/>
<!-- woven carpet -->
<rect x="304" y="269" width="258" height="168" rx="65" fill="#e9e4cb"/><rect x="313" y="277" width="240" height="151" rx="60" fill="url(#rug)"/><rect x="329" y="290" width="209" height="125" rx="49" fill="none" stroke="#d5dbc0" stroke-width="3"/><path d="M392 352L425 322L458 351L425 382Z" fill="none" stroke="#cbd3b6" stroke-width="2"/>
<!-- desk by window -->
<g filter="url(#shadow)"><rect x="526" y="191" width="153" height="59" rx="9" fill="#b9a37a"/><rect x="522" y="182" width="160" height="53" rx="8" fill="#d9c69e"/><rect x="537" y="235" width="8" height="22" fill="#b59e73"/><rect x="659" y="235" width="8" height="22" fill="#b59e73"/><path d="M549 193L591 195L588 224L545 222Z" fill="#fff9e5"/><path d="M555 202L580 204M554 208L578 210M553 214L570 216" stroke="#c5cbae" stroke-width="1.5"/><path d="M600 198L590 223" stroke="#846e50" stroke-width="3"/><ellipse cx="634" cy="207" rx="13" ry="5" fill="#adad8b"/><path d="M634 204V178" stroke="#9b9f7d" stroke-width="3"/><path d="M617 184L624 166H645L651 184Z" fill="#bcc5a4"/><ellipse cx="634" cy="184" rx="17" ry="4" fill="#dce2bf"/><rect x="588" y="250" width="44" height="45" rx="13" fill="#b3bc9b"/><rect x="592" y="249" width="36" height="31" rx="10" fill="#c7ceaf"/></g>
<!-- shelf -->
<rect x="586" y="85" width="83" height="10" rx="2" fill="#c2b28e"/><rect x="592" y="49" width="11" height="35" rx="1" fill="#a9b595"/><rect x="605" y="53" width="8" height="31" rx="1" fill="#d9bc98"/><rect x="615" y="47" width="13" height="37" rx="1" fill="#c9c9a7"/><path d="M596 55V72M609 58V72M620 53V71" stroke="#efe8cc"/><path d="M646 85L642 64H663L659 85" fill="#e6d5b1"/><path d="M652 65Q633 57 642 48Q652 49 652 65Q649 42 660 41Q669 55 652 65" fill="#93a27a"/>
<!-- table + food -->
<g filter="url(#shadow)"><ellipse cx="612" cy="395" rx="71" ry="45" fill="#bfa779"/><ellipse cx="612" cy="385" rx="73" ry="47" fill="#e5d2a6"/><ellipse cx="612" cy="382" rx="67" ry="41" fill="#eadbb8"/><path d="M556 392H667M561 372H660" stroke="#d8c59c" opacity=".5"/><ellipse cx="601" cy="382" rx="25" ry="17" fill="#fbf7e9"/><ellipse cx="601" cy="380" rx="19" ry="12" fill="#d8b882"/><ellipse cx="601" cy="379" rx="16" ry="9" fill="#f2dfad"/><path d="M596 377L600 383M606 376L604 381M600 373L598 377" stroke="#b49a69" stroke-width="2"/><ellipse cx="650" cy="374" rx="10" ry="6" fill="#e3e6d0"/><path d="M641 373V389Q650 395 659 389V373" fill="#c9d3b5"/><path d="M660 377Q672 373 665 385H659" fill="none" stroke="#b9c5a5" stroke-width="3"/><ellipse cx="650" cy="373" rx="9" ry="5" fill="#f6f4df"/><path d="M582 387L572 410" stroke="#ae9d78" stroke-width="3"/></g>
<!-- basket and plants -->
<rect x="660" y="285" width="36" height="32" rx="10" fill="#bdaf85"/><ellipse cx="678" cy="285" rx="18" ry="8" fill="#a89c77"/><ellipse cx="670" cy="281" rx="8" ry="7" fill="#d8c493"/><ellipse cx="683" cy="281" rx="8" ry="7" fill="#dfcaa0"/>
<path d="M109 454L114 487H146L151 454Z" fill="#c9b591"/><ellipse cx="130" cy="454" rx="21" ry="10" fill="#ae9f7c"/><path d="M130 455V412" stroke="#84946c" stroke-width="4"/><path d="M130 439Q88 428 103 409Q125 406 130 439M132 447Q170 433 160 415Q137 415 132 447M130 423Q109 393 128 385Q146 400 130 423" fill="#97a883"/>
<rect x="368" y="475" width="113" height="26" rx="11" fill="#c7c9ac"/><path d="M381 481H468M381 487H468M381 493H468" stroke="#d8d9be"/>
<!-- picture -->
<rect x="149" y="84" width="63" height="59" rx="3" fill="#baa884"/><rect x="155" y="90" width="51" height="47" fill="#f5edd8"/><circle cx="180" cy="108" r="8" fill="#d9c394"/><path d="M157 132L173 115L183 125L190 117L204 131" fill="#b2bda0"/>
</g>
</svg>
